<svg width="316" height="269" viewBox="0 0 316 269" fill="none" xmlns="http://www.w3.org/2000/svg">
<path fill-rule="evenodd" clip-rule="evenodd" d="M158.152 268.892C232.405 268.892 292.598 208.699 292.598 134.446C292.598 60.1937 232.405 3.05176e-05 158.152 3.05176e-05C83.8994 3.05176e-05 23.7058 60.1937 23.7058 134.446C23.7058 208.699 83.8994 268.892 158.152 268.892Z" fill="url(#paint0_linear_57_7)"/>
<g filter="url(#filter0_d_57_7)">
<path d="M161.017 229.417C148.563 229.417 137.231 228.025 127.02 225.24C116.81 222.456 106.754 217.621 96.8526 210.737V169.894H123.075L126.672 193.912C130.153 196.852 134.949 199.25 141.06 201.106C147.171 202.885 153.823 203.775 161.017 203.775C167.128 203.775 172.272 202.924 176.449 201.222C180.703 199.52 183.913 197.122 186.079 194.028C188.322 190.857 189.444 187.144 189.444 182.89C189.444 178.867 188.438 175.309 186.427 172.215C184.493 169.043 181.245 166.181 176.681 163.629C172.194 160.999 166.083 158.485 158.348 156.087C144.966 152.142 133.866 147.849 125.048 143.208C116.307 138.489 109.732 132.881 105.323 126.383C100.991 119.808 98.8251 111.918 98.8251 102.713C98.8251 93.5857 101.339 85.541 106.367 78.5792C111.472 71.5401 118.511 66.0094 127.484 61.987C136.457 57.9647 146.823 55.8762 158.58 55.7214C171.575 55.5667 183.062 57.1138 193.041 60.3626C203.097 63.6114 211.76 68.1366 219.031 73.938V111.996H193.621L189.212 88.7898C186.272 86.9333 182.289 85.3089 177.261 83.9166C172.31 82.5242 166.664 81.828 160.321 81.828C154.906 81.828 150.11 82.6402 145.933 84.2647C141.833 85.8891 138.584 88.2483 136.186 91.3424C133.789 94.4366 132.59 98.1882 132.59 102.597C132.59 106.388 133.634 109.714 135.722 112.576C137.811 115.361 141.292 118.029 146.165 120.582C151.116 123.057 157.923 125.726 166.586 128.588C185.228 133.77 199.345 140.616 208.937 149.125C218.606 157.634 223.441 168.811 223.441 182.657C223.441 192.249 220.849 200.565 215.667 207.604C210.484 214.566 203.213 219.942 193.853 223.732C184.493 227.522 173.548 229.417 161.017 229.417Z" fill="black"/>
</g>
<defs>
<filter id="filter0_d_57_7" x="92.8525" y="55.4894" width="134.588" height="187.928" filterUnits="userSpaceOnUse" color-interpolation-filters="sRGB">
<feFlood flood-opacity="0" result="BackgroundImageFix"/>
<feColorMatrix in="SourceAlpha" type="matrix" values="0 0 0 0 0 0 0 0 0 0 0 0 0 0 0 0 0 0 127 0" result="hardAlpha"/>
<feOffset dy="10"/>
<feGaussianBlur stdDeviation="2"/>
<feComposite in2="hardAlpha" operator="out"/>
<feColorMatrix type="matrix" values="0 0 0 0 1 0 0 0 0 1 0 0 0 0 1 0 0 0 0.25 0"/>
<feBlend mode="normal" in2="BackgroundImageFix" result="effect1_dropShadow_57_7"/>
<feBlend mode="normal" in="SourceGraphic" in2="effect1_dropShadow_57_7" result="shape"/>
</filter>
<linearGradient id="paint0_linear_57_7" x1="158.152" y1="3.05176e-05" x2="158.152" y2="249.33" gradientUnits="userSpaceOnUse">
<stop stop-color="#21F6AA"/>
<stop offset="0.450136" stop-color="#1BC6EC"/>
<stop offset="1" stop-color="#724396"/>
</linearGradient>
</defs>
</svg>
